# xmcd CD database file
# Copyright (C) 1993-1996 Ti Kan
#
# Track frame offsets:
#	150
#	12592
#	28482
#	41695
#	53870
#	67995
#	82255
#	95832
#	110847
#	125075
#
# Disc length: 1763 seconds
#
# Revision: 1
# Processed by: cddbd v1.4b41PL1 Copyright (c) Steve Scherf et al.
# Submitted via: CDValet v3.01 - Copyright (c) 1997 Greg Leichner
#
DISCID=9906e10a
DTITLE=Harry James - The Hits Of Harry James
DYEAR=1900
DGENRE=
TTITLE0=The Mole
TTITLE1=You Made Me Love You [I Didn't Want To Do It]
TTITLE2=Iv'e Heard That Song Before
TTITLE3=Trumpet Blues And Cantabile
TTITLE4=I'm Beginning To See The Light
TTITLE5=Sleepy Lagoon
TTITLE6=Two O'Clock Jump
TTITLE7=I Cried For You, Now It's Your Turn To Cry Over Me
TTITLE8=Music Makers
TTITLE9=Caribiribin
EXTD=
EXTT0=
EXTT1=
EXTT2=
EXTT3=
EXTT4=
EXTT5=
EXTT6=
EXTT7=
EXTT8=
EXTT9=
PLAYORDER=
